<?xml version="1.0" encoding="UTF-8" standalone="no"?>
<!-- Created with Inkscape (http://www.inkscape.org/) -->

<svg
   width="30pc"
   height="30pc"
   viewBox="0 0 127 127"
   version="1.1"
   id="svg5"
   inkscape:version="1.2.2 (732a01da63, 2022-12-09)"
   sodipodi:docname="profile_human.svg"
   xmlns:inkscape="http://www.inkscape.org/namespaces/inkscape"
   xmlns:sodipodi="http://sodipodi.sourceforge.net/DTD/sodipodi-0.dtd"
   xmlns="http://www.w3.org/2000/svg"
   xmlns:svg="http://www.w3.org/2000/svg">
  <sodipodi:namedview
     id="namedview7"
     pagecolor="#ffffff"
     bordercolor="#666666"
     borderopacity="1.0"
     inkscape:pageshadow="2"
     inkscape:pageopacity="0"
     inkscape:pagecheckerboard="0"
     inkscape:document-units="mm"
     showgrid="false"
     inkscape:zoom="0.47284276"
     inkscape:cx="304.54099"
     inkscape:cy="438.8351"
     inkscape:window-width="1751"
     inkscape:window-height="991"
     inkscape:window-x="38"
     inkscape:window-y="0"
     inkscape:window-maximized="0"
     inkscape:current-layer="layer1"
     inkscape:showpageshadow="2"
     inkscape:deskcolor="#d1d1d1"
     showguides="true" />
  <defs
     id="defs2">
    <linearGradient
       id="linearGradient6849"
       inkscape:swatch="solid">
      <stop
         style="stop-color:#a3a3a3;stop-opacity:1;"
         offset="0"
         id="stop6847" />
    </linearGradient>
    <rect
       x="98.34136"
       y="298.19638"
       width="297.13895"
       height="129.00695"
       id="rect946" />
  </defs>
  <g
     inkscape:label="Слой 1"
     inkscape:groupmode="layer"
     id="layer1">
    <path
       style="fill:#382fe2;fill-opacity:1;stroke-width:3.36466"
       id="path966-4-79"
       sodipodi:type="arc"
       sodipodi:cx="61.878181"
       sodipodi:cy="33.834187"
       sodipodi:rx="26.91143"
       sodipodi:ry="26.911358"
       sodipodi:start="0"
       sodipodi:end="6.2829235"
       sodipodi:arc-type="slice"
       d="M 88.789612,33.834187 A 26.91143,26.911358 0 0 1 61.879943,60.745544 26.91143,26.911358 0 0 1 34.966751,33.837709 26.91143,26.911358 0 0 1 61.872897,6.9228292 26.91143,26.911358 0 0 1 88.789611,33.827141 l -26.91143,0.007 z" />
    <path
       id="rect1782-4-6-9"
       style="fill:#a3a3a3;stroke-width:4.31887"
       d="m 17.053784,63.147315 c 3.764427,-1.906742 17.37453,-1.167359 20.043873,0 22.056828,9.645904 30.422984,9.029672 50.212484,0 3.528203,-1.60987 17.157899,-2.300478 21.181819,0 16.38281,13.649443 15.51084,43.476695 15.5878,63.785545 h -13.15441 c 0,0 -1.2315,-36.506982 -3.46156,-36.506982 -2.21297,0 -4.9863,36.506982 -4.9863,36.506982 H 24.994388 c 0,0 -1.716321,-36.437191 -4.392793,-36.437191 -2.091519,0 -3.695404,36.437191 -3.695404,36.437191 H 2.9244233 C 2.9231137,106.82768 3.561109,70.989338 17.053784,63.147315 Z"
       sodipodi:nodetypes="csscccsccsccc" />
  </g>
</svg>
